<svg width="222" height="170" viewBox="0 0 222 170" fill="none" xmlns="http://www.w3.org/2000/svg">
<g filter="url(#filter0_d)">
<circle cx="16.7349" cy="10" r="4" fill="#37474F"/>
<circle cx="204.735" cy="10" r="4" fill="#37474F"/>
<path d="M210.735 1H10.7346C10.7346 1 -7.35995 87.5774 20.7344 121C43.2099 147.738 75.8053 161 110.735 161C145.664 161 178.259 147.738 200.735 121C228.829 87.5774 210.735 1 210.735 1Z" stroke="#37474F" stroke-width="2"/>
<path d="M198.691 17H22.7788C22.7788 17 6.86354 89.5086 31.5742 117.5C51.3428 139.893 80.0124 151 110.735 151C141.458 151 170.127 139.893 189.895 117.5C214.606 89.5086 198.691 17 198.691 17Z" stroke="#424242"/>
<path d="M70.5418 80.5C70.5418 102.568 88.4318 120.458 110.5 120.458C132.569 120.458 150.458 102.568 150.458 80.5C150.458 58.4317 132.569 40.5417 110.5 40.5417C88.4318 40.5417 70.5418 58.4317 70.5418 80.5Z" stroke="black" stroke-width="2" stroke-linecap="round" stroke-linejoin="round"/>
<path d="M127.625 80.5H110.5L101.937 89.0625" stroke="black" stroke-width="2" stroke-linecap="round" stroke-linejoin="round"/>
<path d="M79.9602 106.245L58.0972 104.247C55.2508 103.989 52.6044 102.674 50.6808 100.56C48.7573 98.4463 47.6965 95.6879 47.7081 92.8299V68.1129C47.6965 65.2549 48.7573 62.4965 50.6808 60.3826C52.6044 58.2688 55.2508 56.9534 58.0972 56.6962L79.9602 54.6983M141.039 54.7554L162.902 56.7533C165.739 57.0096 168.377 58.317 170.299 60.4187C172.222 62.5204 173.289 65.2647 173.291 68.1129V92.9441C173.303 95.8021 172.242 98.5605 170.319 100.674C168.395 102.788 165.749 104.104 162.902 104.361L141.039 106.359" stroke="black" stroke-width="2" stroke-linecap="round" stroke-linejoin="round"/>
</g>
<defs>
<filter id="filter0_d" x="0" y="0" width="221.469" height="170" filterUnits="userSpaceOnUse" color-interpolation-filters="sRGB">
<feFlood flood-opacity="0" result="BackgroundImageFix"/>
<feColorMatrix in="SourceAlpha" type="matrix" values="0 0 0 0 0 0 0 0 0 0 0 0 0 0 0 0 0 0 127 0"/>
<feOffset dy="4"/>
<feGaussianBlur stdDeviation="2"/>
<feColorMatrix type="matrix" values="0 0 0 0 0 0 0 0 0 0 0 0 0 0 0 0 0 0 0.25 0"/>
<feBlend mode="normal" in2="BackgroundImageFix" result="effect1_dropShadow"/>
<feBlend mode="normal" in="SourceGraphic" in2="effect1_dropShadow" result="shape"/>
</filter>
</defs>
</svg>
